<?xml version="1.0" encoding="utf-8"?>
<!-- Generator: Adobe Illustrator 28.0.0, SVG Export Plug-In . SVG Version: 6.00 Build 0)  -->
<svg version="1.2" baseProfile="tiny-ps" xmlns="http://www.w3.org/2000/svg" viewBox="0 0 305 305">
  <title>Konfir Limited</title>
<g>
	<g transform="matrix(.1 0 0 -.1 0 300)">
		<path fill="#FFFFFF" d="M25,1475V-25h3000v3000H25V1475z" />
	</g>
	<g transform="matrix(.1 0 0 -.1 0 300)">
		<path fill="#C7D4D4" d="M793,1829c-40-38-100-95-133-126l-60-57l-7,39c-9,51-14,59-45,71l-24,9l-22-11c-12-7-25-17-29-23l-8-11    v-271l13-17c6-9,24-19,40-23l28-6l189,187l189,187l11,29l12,29l-16,25c-9,14-20,25-25,25s-16,3-25,6l-16,6L793,1829z M1888,1766    c-41-25-56-54-63-116l-5-50l-42-3l-43-3v-89h90v-270h87l6,53l7,52l-7,83l-6,82h113v88l-16,6c-9,3-33,6-55,6h-38l6,33    c3,17,9,36,14,41l8,9l41-1l41-2l-3,48l-3,47l-50,3l-50,2L1888,1766z M2081,1762l-18-14v-57l22-18c27-22,39-22,68-2l22,15v56    l-18,16C2135,1778,2105,1780,2081,1762z M1030,1589c-39-20-74-53-91-86l-14-27v-122l15-29c8-16,31-41,51-57l37-28l68-3l68-4l45,26    l44,26l22,45l22,46l-4,59l-4,58l-28,37l-29,37l-41,19l-41,19h-90L1030,1589z M1174,1479l21-27v-78l-25-24l-24-25h-68l-26,20    l-25,20l-6,26l-7,26l11,34l12,34l16,10c9,5,36,10,59,10h42L1174,1479z M1450,1591c-37-16-70-52-84-89l-11-28v-239h87l7,38    c3,20,6,73,6,118v81l18,16l19,17h69l20-14l19-14l5-119l5-118h90v250l-24,39l-24,38l-41,19l-41,19l-45-1h-45L1450,1591z M2065,1492    c0-57,3-138,6-180l7-77h87v360h-100V1492z M2350,1581c-38-17-60-41-80-89l-15-36v-222l48,3l47,3l5,107l5,108l21,21l21,21l42,5    l41,6v87h-52l-53-1L2350,1581z M672,1467l-17-19v-47l51-78l52-78l23-6c13-3,34-4,47,0l24,6l11,25l12,26l-15,32c-9,18-35,59-58,92    l-43,60l-35,3l-35,3L672,1467z M495,1352l-25-12l-3-36l-3-37l16-16l16-16h27c33,0,45,8,61,37l11,22l-10,26l-10,25l-25,10    C519,1367,525,1367,495,1352z" />
	</g>
	<g transform="matrix(.1 0 0 -.1 0 300)">
		<path fill="#48C3B8" d="M718,1753l-133-132v101l-18,16l-19,17h-50l-16-18l-17-19v-270l18-16l19-17h48l193,193l192,192v52l-18,16    l-19,17h-46L718,1753z M1877,1759c-30-21-44-49-51-108l-6-51l-43-3l-43-3l3-42l3-42l43-3l42-3v-257l35-6c20-4,40-4,45-1l10,6v259    h110v90h-110v56l16,23l17,23l38-5l39-5v88h-126L1877,1759z M2087,1759l-22-15v-48l16-15l15-16h46l16,18c22,25,21,48-3,72    S2117,1780,2087,1759z M1052,1595c-16-5-43-20-61-34l-33-25l-17-34l-16-35v-108l27-42l28-43l43-20l43-21l59,4l58,4l37,28l37,29    l20,45l20,45l-4,48l-5,49l-26,38l-25,39l-35,17c-20,9-55,18-79,21l-43,4L1052,1595z M1155,1500l29-15l9-34l10-34l-5-26l-5-26    l-26-20l-25-20h-36l-36,1l-16,12c-23,18-39,52-39,84v29l16,22C1060,1514,1108,1525,1155,1500z M1462,1591c-51-19-73-40-92-90    l-16-41l3-110l3-110h80l5,110c6,123,11,138,46,154c36,16,58,14,88-10l26-20v-229h90v247l-23,33c-12,19-36,42-53,52l-31,18l-44,5    l-44,5L1462,1591z M2075,1420v-174l34-7l35-6l10,7l11,6v349h-90V1420z M2345,1573l-44-23l-18-35l-18-36l-2-119l-3-120l41-3l41-3    l8,112l7,112l23,23l24,24h81v90h-96L2345,1573z M675,1465l-20-20v-18c0-20,68-131,103-169l20-23h54l16,18l17,19v48l-46,70    c-53,80-69,95-101,95h-23L675,1465z M482,1337l-17-19v-43l20-20c24-24,48-25,78-4l22,15v56l-18,16l-19,17h-50L482,1337z" />
	</g>
	<g transform="matrix(.1 0 0 -.1 0 300)">
		<path fill="#5FBD60" d="M1877,1759c-30-21-44-49-51-108l-6-51l-43-3l-43-3l3-42l3-42l43-3l42-3v-257l35-6c20-4,40-4,45-1l10,6v259    h110v90h-110v56l16,23l17,23l38-5l39-5v88h-126L1877,1759z M2072,1739c-12-12-8-42,9-58l15-16h25c32,0,30,10-9,48l-33,32    L2072,1739z M472,1698c-4-3-7-61-7-128v-122l18-16l19-17h48l119,119l119,119l-19,5c-11,3-42,8-70,12l-51,6l-31-26l-32-27v61l-17,4    c-10,3-34,8-54,11l-35,6L472,1698z M1052,1595c-16-5-43-20-61-34l-33-25l-17-34l-16-35v-108l27-42l28-43l43-20l43-21l59,4l58,4    l37,28l37,29l20,45l20,45l-4,48l-5,49l-26,38l-25,39l-35,17c-20,9-55,18-79,21l-43,4L1052,1595z M1155,1500l29-15l9-34l10-34    l-5-26l-5-26l-26-20l-25-20h-36l-36,1l-16,12c-23,18-39,52-39,84v29l16,22C1060,1514,1108,1525,1155,1500z M1462,1591    c-51-19-73-40-92-90l-16-41l3-110l3-110h80l5,110c6,123,11,138,46,154c36,16,58,14,88-10l26-20v-229h90v247l-23,33    c-12,19-36,42-53,52l-31,18l-44,5l-44,5L1462,1591z M2075,1420v-174l34-7l35-6l10,7l11,6v349h-90V1420z M2345,1573l-44-23l-18-35    l-18-36l-2-119l-3-120l41-3l41-3l8,112l7,112l23,23l24,24h81v90h-96L2345,1573z M675,1465l-20-20v-18c0-20,68-131,103-169l20-23    h54l16,18l17,19v48l-46,70c-53,80-69,95-101,95h-23L675,1465z M482,1337l-17-19v-43l20-20c24-24,48-25,78-4l22,15v56l-18,16    l-19,17h-50L482,1337z" />
	</g>
	<g transform="matrix(.1 0 0 -.1 0 300)">
		<path fill="#7C8199" d="M1877,1759c-30-21-44-49-51-108l-6-51l-43-3l-43-3l3-42l3-42l43-3l42-3v-257l35-6c20-4,40-4,45-1l10,6v259    h110v90h-110v56l16,23l17,23l38-5l39-5v88h-126L1877,1759z M1052,1595c-16-5-43-20-61-34l-33-25l-17-34l-16-35v-108l27-42l28-43    l43-20l43-21l59,4l58,4l37,28l37,29l20,45l20,45l-4,48l-5,49l-26,38l-25,39l-35,17c-20,9-55,18-79,21l-43,4L1052,1595z M1155,1500    l29-15l9-34l10-34l-5-26l-5-26l-26-20l-25-20h-36l-36,1l-16,12c-23,18-39,52-39,84v29l16,22C1060,1514,1108,1525,1155,1500z     M1462,1591c-51-19-73-40-92-90l-16-41l3-110l3-110h80l5,110c6,123,11,138,46,154c36,16,58,14,88-10l26-20v-229h90v247l-23,33    c-12,19-36,42-53,52l-31,18l-44,5l-44,5L1462,1591z M2075,1420v-174l34-7l35-6l10,7l11,6v349h-90V1420z M2345,1573l-44-23l-18-35    l-18-36l-2-119l-3-120l41-3l41-3l8,112l7,112l23,23l24,24h81v90h-96L2345,1573z M675,1465l-20-20v-18c0-20,68-131,103-169l20-23    h54l16,18l17,19v48l-46,70c-53,80-69,95-101,95h-23L675,1465z" />
	</g>
	<g transform="matrix(.1 0 0 -.1 0 300)">
		<path fill="#17214A" d="M1870,1742l-33-33l-7-57l-7-57h-78v-80h80v-270h90v270h110v80h-110v31c0,17,5,39,10,50l11,19h90l-3,38    l-3,37l-58,3l-58,3L1870,1742z M1008,1569l-40-27l-19-31l-19-31v-131l29-38l29-38l45-20l45-20l50,6l50,5l37,25l37,24l18,39l19,38    l-1,50v51l-16,29c-34,66-86,95-171,95h-52L1008,1569z M1168,1495l26-21l7-35l6-34l-13-31l-12-31l-35-15l-34-14l-29,6l-29,7l-20,25    l-20,26v88l26,24l27,25h74L1168,1495z M1440,1577c-16-11-38-28-48-39l-18-20l-9-59c-11-66-13-174-4-198l6-16h78v221l25,24l24,25    h31c17,0,40-4,50-10l18-10l11-31l11-32v-187h80v232l-16,34l-16,34l-32,22l-31,23l-65,3l-65,3L1440,1577z M2075,1420v-175h90v350    h-90V1420z M2372,1581c-48-18-76-42-93-83l-14-32v-221h78l4,104l3,104l24,26l24,25l41,3l41,3l3,43l3,42h-38    C2427,1594,2393,1588,2372,1581z M682,1467l-17-19v-52l52-76l52-76l22-5l22-6l21,11l21,12l6,24l6,25l-33,57c-19,31-48,71-65,89    l-31,34h-40L682,1467z" />
	</g>
</g>
</svg>